<svg t="1704663532852" class="icon" viewBox="0 0 1424 1024" version="1.1" xmlns="http://www.w3.org/2000/svg"
    p-id="12800" width="200" height="200">
    <path
        d="M1318.676874 12.438903A139.688932 139.688932 0 0 0 1256.889673 0.063657H167.6009a139.688932 139.688932 0 0 0-61.742686 12.330731A170.627048 170.627048 0 0 0 0.00089 170.690705v682.597223a170.716079 170.716079 0 0 0 104.521866 157.895679A138.665081 138.665081 0 0 0 167.6009 1023.914976h1089.288773a138.665081 138.665081 0 0 0 63.078144-12.775884A170.716079 170.716079 0 0 0 1424.489682 853.287928V170.690705A170.627048 170.627048 0 0 0 1318.676874 12.438903z m22.035061 158.296317v682.552708a85.82545 85.82545 0 0 1-6.009562 31.160692 189.011857 189.011857 0 0 0-19.097053-19.675751l-348.465571-310.449526 359.816966-389.241563c4.451527-4.763134 7.834688-9.303692 11.351395-13.888765a85.558358 85.558358 0 0 1 2.403825 19.49769z m-83.777747-85.335781a81.551983 81.551983 0 0 1 22.257637 3.38316 79.281704 79.281704 0 0 1-13.042975 17.80611L767.88938 645.535141a76.032089 76.032089 0 0 1-111.288187 0L158.564299 106.900316a79.103643 79.103643 0 0 1-13.042975-17.80611 81.507468 81.507468 0 0 1 22.257637-3.383161h1089.110712zM89.832715 884.582166a85.91448 85.91448 0 0 1-6.009562-31.160692V170.690705a85.780934 85.780934 0 0 1 2.403825-19.40866c3.516707 4.451527 6.944383 8.903055 11.351395 13.888766l359.816965 389.241562-348.46557 310.449526a189.501525 189.501525 0 0 0-19.097053 19.720267z m77.768185 54.041543a80.127495 80.127495 0 0 1-11.930094-1.246427 117.520325 117.520325 0 0 1 8.457902-8.279841l350.73585-312.497229 80.795224 87.428a157.094405 157.094405 0 0 0 233.304555 0l80.795223-87.428 350.73585 312.497229c3.516707 3.116069 6.187623 5.831501 8.457902 8.279841a80.127495 80.127495 0 0 1-11.930094 1.246427H167.6009z"
        p-id="12801"></path>
</svg>