<svg t="1704661644709" class="icon" viewBox="0 0 1024 1024" version="1.1" xmlns="http://www.w3.org/2000/svg" p-id="4342"
    width="200" height="200">
    <path
        d="M603.7 114.3c22.4-6 45.9-6 68.3 0 25.7 6 49.7 17.7 70.3 34.2 8.1 5.4 14.4 13.2 18.1 22.2 9.5 23.1-1.5 49.6-24.6 59.2-3.7 1.5-7.6 2.6-11.5 3.1-10.4 1.9-21.2-0.2-30.1-6-4-2-8-8-14.1-10-12.8-9.4-28.3-14.4-44.2-14.1-11.1 0-21.5 5.2-28.1 14.1-7.4 7.3-10.4 18-8 28.1 6 20.1 10 42.2 16.1 62.2 39.5 1.4 78.1 12.4 112.4 32.1 32.8 20.4 62 46.1 86.3 76.2 20.6 26.1 35.6 56.2 44.2 88.3 10.3 33.8 13.7 69.3 10 104.4-1.9 29.5-8 58.5-18.1 86.3-25.9 67.9-73.1 125.7-134.4 164.7-45 28.3-95.8 46.1-148.6 52.2-36.1 4.4-72.5 3.7-108.4-2C384.5 896.8 315.6 861 262.4 807 210.2 753.9 174 687.1 158 614.3c-7-54.2-5-109.1 6-162.6 15.2-65.2 47-125.3 92.3-174.5 38.2-39.4 84-70.8 134.5-92.3 6-2 10-4 16.1-6 12-2.4 24.5 0.5 34.1 8 13.4 9.6 20.3 25.8 18 42-2.6 16.1-13.2 29.7-28.1 36.1-50.6 20.2-95 53.4-128.5 96.4-29.8 40.1-49.1 87-56.2 136.5-5.7 48.1-0.2 96.9 16.1 142.5C287.1 707 335.7 762.1 398.8 795c37.8 19.8 79.8 30.2 122.5 30.1 34.9 0 69.6-6.1 102.4-18.1 28.8-10.2 55.4-25.9 78.3-46.2 21.8-18.2 39.6-40.8 52.3-66.3 7.4-12.5 12.8-26 16.1-40.1 12.7-40.4 13.4-83.6 2-124.5-9.9-33.6-29.4-63.6-56.2-86.3-11.8-10.5-24.6-19.9-38.1-28.1-11.8-6.7-24.7-11.5-38.1-14.1 10 36.1 18.1 72.3 28.1 106.4 2.3 8.5 3.7 17.3 4 26.1 1.2 37.5-11.7 74-36.1 102.4-22.7 27-53.9 45.5-88.5 52.3-37.4 7.5-76.2 0.3-108.4-20.1-29.4-20.1-51.9-48.9-64.3-82.3-6.4-18.8-9.8-38.4-10-58.2-2.1-43.4 9.8-86.4 34.1-122.5 30-42.5 74.1-73.1 124.5-86.3-4.3-13.8-7.6-27.9-10-42.2-10.2-29.7-8-62.3 6-90.3 7.3-15.8 18.3-29.6 32.2-40.2 14.8-14.3 32.6-25.3 52.1-32.2M487.2 439.6c-13.3 13.9-22.3 31.3-26.1 50.2-4 17.2-4 35 0 52.2 4 19.1 14.7 36.2 30.1 48.2 12.9 8.7 29 11.7 44.2 8 28.5-4.8 49.6-29.3 50.2-58.2-2-6-2-14.1-4-20.1-10-38.1-20.1-78.3-30.1-116.4-24.3 5.9-46.5 18.4-64.3 36.1z"
        p-id="4343"></path>
</svg>